<?xml version="1.0" encoding="UTF-8" standalone="no"?>
<!DOCTYPE svg PUBLIC "-//W3C//DTD SVG 1.1//EN" "http://www.w3.org/Graphics/SVG/1.1/DTD/svg11.dtd">
<svg xmlns="http://www.w3.org/2000/svg" version="1.1" viewBox="0 0 834 834">
<path fill="#059669" d="
  M 404.46 242.89
  C 387.13 236.47 377.57 219.93 382.22 202.11
  C 385.99 187.67 400.39 176.80 415.36 177.38
  C 453.02 178.83 460.53 230.65 424.50 242.89
  A 0.70 0.69 -9.3 0 0 424.02 243.55
  L 424.01 287.94
  A 0.46 0.46 2.7 0 0 424.43 288.40
  Q 466.65 291.99 498.89 319.20
  A 0.55 0.55 -47.0 0 0 499.63 319.17
  L 530.93 287.87
  A 0.73 0.72 -35.5 0 0 531.07 287.06
  C 514.59 252.31 557.11 221.18 584.32 247.63
  C 599.90 262.76 596.87 289.35 577.75 300.33
  Q 562.47 309.11 545.06 301.14
  A 0.52 0.50 -54.5 0 0 544.48 301.25
  L 513.21 332.48
  A 0.81 0.79 -43.1 0 0 513.16 333.56
  Q 540.14 365.24 543.85 407.44
  A 0.89 0.88 87.5 0 0 544.73 408.25
  L 588.48 408.25
  A 0.79 0.76 11.5 0 0 589.19 407.80
  Q 592.20 401.22 593.40 399.42
  C 609.45 375.39 646.29 381.16 653.68 408.86
  C 661.42 437.86 631.15 461.03 605.06 446.96
  Q 593.78 440.88 589.51 427.83
  A 0.70 0.68 80.5 0 0 588.86 427.35
  L 544.43 427.37
  A 0.54 0.54 -87.7 0 0 543.89 427.87
  Q 540.19 469.61 513.13 501.97
  A 0.60 0.60 -47.9 0 0 513.17 502.79
  L 544.44 534.06
  A 0.87 0.86 54.3 0 0 545.43 534.23
  C 568.91 522.85 595.53 539.55 594.27 565.99
  C 593.64 579.23 584.30 591.69 571.50 595.81
  C 542.11 605.29 518.46 575.64 531.10 548.42
  A 0.71 0.71 -55.0 0 0 530.96 547.62
  L 500.17 516.80
  A 1.39 1.38 -42.1 0 0 498.32 516.71
  Q 465.73 543.51 424.63 547.07
  A 0.55 0.54 -2.3 0 0 424.12 547.61
  L 424.08 591.86
  A 0.70 0.69 9.3 0 0 424.56 592.52
  C 441.06 598.26 451.28 614.66 447.29 631.89
  C 442.58 652.23 420.32 663.99 400.98 655.20
  C 372.35 642.20 375.62 603.21 404.49 592.60
  A 0.73 0.73 -10.5 0 0 404.96 591.92
  L 404.95 547.57
  A 0.54 0.54 2.3 0 0 404.45 547.03
  Q 362.38 543.35 330.36 516.26
  A 0.55 0.54 -47.4 0 0 329.62 516.30
  L 298.17 547.64
  A 0.73 0.71 -35.3 0 0 298.02 548.45
  Q 307.23 568.17 294.72 584.74
  C 284.59 598.15 264.51 601.35 250.27 592.23
  C 230.73 579.73 229.58 551.53 248.08 537.41
  Q 263.70 525.48 283.90 534.18
  A 0.75 0.74 -55.6 0 0 284.72 534.02
  L 315.96 502.67
  A 0.56 0.55 47.9 0 0 315.99 501.93
  Q 288.86 469.66 285.24 427.55
  A 0.32 0.31 -1.9 0 0 284.92 427.26
  L 240.53 427.25
  A 0.73 0.73 -79.5 0 0 239.85 427.72
  C 235.06 440.06 226.09 448.62 213.21 450.72
  C 181.39 455.91 161.51 417.69 183.52 394.65
  C 201.36 375.99 231.91 383.61 239.76 407.84
  A 0.69 0.67 -8.7 0 0 240.41 408.30
  L 284.75 408.27
  A 0.46 0.45 2.0 0 0 285.21 407.85
  Q 288.93 365.68 316.03 333.41
  A 0.55 0.55 43.0 0 0 316.00 332.67
  L 284.66 301.35
  A 0.73 0.72 54.5 0 0 283.85 301.21
  Q 269.28 307.99 256.00 302.60
  C 229.14 291.70 227.50 254.64 253.26 241.50
  Q 261.79 237.14 271.16 238.06
  C 295.25 240.43 308.77 265.46 298.03 286.99
  A 0.68 0.68 -54.4 0 0 298.16 287.79
  L 329.44 319.07
  A 0.70 0.70 47.2 0 0 330.39 319.11
  Q 362.44 292.04 404.62 288.41
  A 0.39 0.39 -2.4 0 0 404.98 288.02
  L 404.94 243.57
  A 0.74 0.72 10.5 0 0 404.46 242.89
  Z
  M 428.99 210.86
  A 14.40 14.40 0.0 0 0 414.59 196.46
  A 14.40 14.40 0.0 0 0 400.19 210.86
  A 14.40 14.40 0.0 0 0 414.59 225.26
  A 14.40 14.40 0.0 0 0 428.99 210.86
  Z
  M 282.75 271.45
  A 14.42 14.42 0.0 0 0 268.33 257.03
  A 14.42 14.42 0.0 0 0 253.91 271.45
  A 14.42 14.42 0.0 0 0 268.33 285.87
  A 14.42 14.42 0.0 0 0 282.75 271.45
  Z
  M 575.25 271.46
  A 14.41 14.41 0.0 0 0 560.84 257.05
  A 14.41 14.41 0.0 0 0 546.43 271.46
  A 14.41 14.41 0.0 0 0 560.84 285.87
  A 14.41 14.41 0.0 0 0 575.25 271.46
  Z
  M 478.17 507.60
  C 464.33 465.14 409.10 449.25 374.17 476.06
  Q 368.71 480.24 366.68 480.87
  C 359.22 483.17 352.25 475.57 355.29 468.21
  C 358.04 461.53 373.70 453.65 380.19 450.91
  A 0.70 0.70 -33.5 0 0 380.42 449.78
  C 354.71 422.97 368.53 379.03 405.59 373.09
  C 425.12 369.96 445.38 380.92 453.37 399.01
  C 460.71 415.63 457.81 434.65 445.52 448.27
  A 0.78 0.77 32.1 0 0 445.81 449.51
  Q 479.06 463.08 493.32 493.84
  A 0.74 0.74 -36.0 0 0 494.53 494.03
  C 517.61 469.35 528.98 436.47 524.19 402.86
  C 516.94 352.01 476.14 312.38 424.74 307.57
  C 377.24 303.13 333.01 329.84 313.43 372.93
  C 297.31 408.37 302.05 451.87 325.65 483.33
  C 361.96 531.73 427.85 542.63 477.91 508.36
  A 0.69 0.67 -26.6 0 0 478.17 507.60
  Z
  M 438.31 417.73
  A 26.03 26.03 0.0 0 0 412.28 391.70
  A 26.03 26.03 0.0 0 0 386.25 417.73
  A 26.03 26.03 0.0 0 0 412.28 443.76
  A 26.03 26.03 0.0 0 0 438.31 417.73
  Z
  M 222.15 417.74
  A 14.41 14.41 0.0 0 0 207.74 403.33
  A 14.41 14.41 0.0 0 0 193.33 417.74
  A 14.41 14.41 0.0 0 0 207.74 432.15
  A 14.41 14.41 0.0 0 0 222.15 417.74
  Z
  M 635.88 417.72
  A 14.42 14.42 0.0 0 0 621.46 403.30
  A 14.42 14.42 0.0 0 0 607.04 417.72
  A 14.42 14.42 0.0 0 0 621.46 432.14
  A 14.42 14.42 0.0 0 0 635.88 417.72
  Z
  M 282.74 564.00
  A 14.43 14.43 0.0 0 0 268.31 549.57
  A 14.43 14.43 0.0 0 0 253.88 564.00
  A 14.43 14.43 0.0 0 0 268.31 578.43
  A 14.43 14.43 0.0 0 0 282.74 564.00
  Z
  M 575.26 563.99
  A 14.41 14.41 0.0 0 0 560.85 549.58
  A 14.41 14.41 0.0 0 0 546.44 563.99
  A 14.41 14.41 0.0 0 0 560.85 578.40
  A 14.41 14.41 0.0 0 0 575.26 563.99
  Z
  M 429.01 624.59
  A 14.42 14.42 0.0 0 0 414.59 610.17
  A 14.42 14.42 0.0 0 0 400.17 624.59
  A 14.42 14.42 0.0 0 0 414.59 639.01
  A 14.42 14.42 0.0 0 0 429.01 624.59
  Z"
/>
<circle fill="#059669" cx="348.45" cy="488.76" r="9.49"/>
</svg>
