<?xml version="1.0" encoding="UTF-8" standalone="no"?>
<!DOCTYPE svg PUBLIC "-//W3C//DTD SVG 1.1//EN" "http://www.w3.org/Graphics/SVG/1.1/DTD/svg11.dtd">
<svg xmlns="http://www.w3.org/2000/svg" version="1.1" viewBox="0 0 834 834">
<path fill="#912f72" d="
  M 652.15 352.93
  A 235.15 235.15 0.0 0 1 417.00 588.08
  A 235.15 235.15 0.0 0 1 181.85 352.93
  A 235.15 235.15 0.0 0 1 417.00 117.78
  A 235.15 235.15 0.0 0 1 652.15 352.93
  Z
  M 637.81 352.94
  A 220.81 220.81 0.0 0 0 417.00 132.13
  A 220.81 220.81 0.0 0 0 196.19 352.94
  A 220.81 220.81 0.0 0 0 417.00 573.75
  A 220.81 220.81 0.0 0 0 637.81 352.94
  Z"
/>
<path fill="#912f72" d="
  M 350.27 190.57
  C 353.27 187.64 355.42 185.02 359.18 182.78
  Q 361.73 181.26 363.90 183.28
  C 384.25 202.28 403.81 222.04 423.37 241.88
  C 428.91 247.50 426.33 251.03 421.52 255.85
  Q 393.92 283.48 366.30 311.05
  C 361.65 315.70 357.45 312.54 353.51 308.61
  Q 326.14 281.29 298.83 253.91
  Q 292.70 247.76 298.84 241.60
  Q 324.42 215.94 350.27 190.57
  Z
  M 407.7736 248.5312
  A 0.51 0.51 0.0 0 0 407.7724 247.8099
  L 361.1069 201.3071
  A 0.51 0.51 0.0 0 0 360.3857 201.3084
  L 314.3064 247.5488
  A 0.51 0.51 0.0 0 0 314.3076 248.2701
  L 360.9731 294.7729
  A 0.51 0.51 0.0 0 0 361.6943 294.7716
  L 407.7736 248.5312
  Z"
/>
<path fill="#912f72" d="
  M 476.19 428.81
  Q 438.30 391.49 381.60 334.40
  C 376.29 329.05 375.49 325.66 380.93 320.21
  Q 456.52 244.55 475.32 225.82
  Q 481.50 219.67 487.81 225.94
  Q 550.20 288.02 582.30 320.70
  Q 584.39 322.83 586.42 326.77
  A 0.79 0.79 -40.5 0 1 586.35 327.61
  C 584.86 329.60 583.68 331.95 582.01 333.64
  Q 535.52 380.58 488.65 427.13
  C 484.72 431.03 480.62 433.17 476.19 428.81
  Z
  M 502.44 323.49
  C 507.94 318.04 511.43 319.48 516.45 324.38
  Q 529.91 337.51 542.77 351.14
  A 0.44 0.43 -43.6 0 0 543.39 351.15
  L 567.33 327.52
  A 0.76 0.75 45.0 0 0 567.32 326.45
  L 482.82 241.95
  A 1.32 1.32 44.8 0 0 480.95 241.95
  L 396.30 326.64
  A 0.50 0.50 -45.4 0 0 396.30 327.35
  L 481.36 412.44
  A 0.51 0.49 45.0 0 0 482.07 412.45
  L 505.21 389.59
  A 0.51 0.49 45.0 0 0 505.20 388.88
  Q 490.84 374.45 476.45 360.04
  C 472.15 355.74 474.55 351.38 478.33 347.58
  Q 490.33 335.48 502.44 323.49
  Z
  M 509.3776 338.4211
  A 0.43 0.43 0.0 0 0 508.7695 338.4189
  L 492.7757 354.3014
  A 0.43 0.43 0.0 0 0 492.7736 354.9095
  L 515.7024 377.9989
  A 0.43 0.43 0.0 0 0 516.3105 378.0011
  L 532.3043 362.1186
  A 0.43 0.43 0.0 0 0 532.3064 361.5105
  L 509.3776 338.4211
  Z"
/>
<rect fill="#912f72" x="-6.72" y="-9.19" transform="translate(351.00,237.38) rotate(45.0)" width="13.44" height="18.38" rx="0.49"/>
<rect fill="#912f72" x="-6.36" y="-24.23" transform="translate(464.49,310.14) rotate(45.0)" width="12.72" height="48.46" rx="0.44"/>
<path fill="#912f72" d="
  M 289.17 330.30
  A 0.63 0.62 44.7 0 0 288.28 330.30
  L 265.53 353.08
  A 0.42 0.41 -42.8 0 1 264.92 353.06
  L 256.86 343.85
  A 1.76 1.76 -42.5 0 1 256.97 341.41
  Q 269.29 329.73 281.25 317.64
  C 286.81 312.02 290.34 311.71 295.85 317.23
  Q 359.83 381.23 423.85 445.19
  A 0.47 0.47 -44.2 0 1 423.84 445.88
  L 414.33 454.73
  A 0.52 0.52 -44.2 0 1 413.60 454.72
  L 289.17 330.30
  Z"
/>
<path fill="#912f72" d="
  M 601.72 343.90
  C 604.35 346.25 607.62 348.83 609.82 351.67
  A 1.32 1.32 48.7 0 1 609.71 353.41
  Q 560.07 403.06 510.07 453.05
  C 509.32 453.81 508.65 455.20 507.67 455.98
  A 0.58 0.53 48.5 0 1 506.92 455.90
  L 498.44 447.08
  A 0.64 0.61 45.3 0 1 498.43 446.20
  L 600.70 343.93
  A 0.75 0.74 43.0 0 1 601.72 343.90
  Z"
/>
<path fill="#912f72" d="
  M 428.77 519.22
  Q 428.15 517.71 426.19 514.78
  C 406.16 484.77 432.81 444.49 468.68 451.63
  C 493.90 456.65 508.54 482.48 499.50 507.00
  C 493.23 524.02 476.39 534.00 458.18 534.00
  Q 401.34 534.00 344.49 534.00
  A 0.45 0.43 -1.3 0 1 344.04 533.59
  L 343.42 520.08
  A 0.49 0.48 -1.1 0 1 343.91 519.58
  L 428.44 519.68
  A 0.35 0.33 -10.7 0 0 428.77 519.22
  Z"
/>
<path fill="#912f72" d="
  M 315.94 519.81
  L 303.03 519.72
  A 0.50 0.50 0.0 0 1 302.53 519.22
  L 302.53 506.80
  A 0.51 0.50 -90.0 0 1 303.03 506.29
  L 316.44 506.26
  A 0.54 0.53 89.5 0 1 316.98 506.80
  L 317.01 519.01
  A 0.71 0.67 -0.4 0 0 317.72 519.67
  L 329.96 519.69
  A 0.53 0.50 -89.4 0 1 330.46 520.23
  L 330.40 533.38
  A 0.51 0.51 0.0 0 1 329.89 533.89
  L 316.88 533.89
  A 0.53 0.48 90.0 0 1 316.40 533.36
  L 316.45 520.31
  A 0.51 0.50 0.0 0 0 315.94 519.81
  Z"
/>
<circle fill="#912f72" cx="417.00" cy="694.61" r="20.94"/>
</svg>
