<?xml version="1.0" encoding="UTF-8" standalone="no"?>
<!DOCTYPE svg PUBLIC "-//W3C//DTD SVG 1.1//EN" "http://www.w3.org/Graphics/SVG/1.1/DTD/svg11.dtd">
<svg xmlns="http://www.w3.org/2000/svg" version="1.1" viewBox="0 0 834 834">
<path fill="#059669" d="
  M 210.94 600.44
  Q 211.03 567.84 211.01 535.25
  C 211.00 519.11 212.48 505.43 215.91 490.55
  A 0.41 0.40 -82.9 0 0 215.53 490.05
  Q 200.09 489.95 184.82 490.01
  Q 180.66 490.03 178.49 488.73
  C 172.06 484.88 171.94 475.92 178.44 472.37
  Q 180.91 471.02 185.95 471.01
  Q 203.34 470.99 220.73 471.00
  A 0.67 0.67 -81.9 0 0 221.37 470.52
  L 223.48 463.06
  A 0.47 0.46 5.4 0 0 222.98 462.47
  C 215.44 463.16 211.00 458.85 211.00 451.64
  Q 211.00 400.57 211.00 349.41
  A 0.70 0.68 -84.4 0 0 210.45 348.73
  C 195.02 345.55 187.37 330.71 192.32 315.72
  A 0.73 0.73 29.5 0 0 192.10 314.93
  C 178.30 303.33 178.57 283.50 194.49 274.13
  A 0.64 0.64 65.7 0 0 194.77 273.39
  C 191.71 263.83 194.62 255.32 201.00 248.16
  A 0.81 0.77 -36.1 0 0 201.15 247.33
  C 196.19 235.53 200.12 224.01 210.57 217.22
  A 0.94 0.91 74.0 0 0 210.99 216.44
  Q 211.00 203.71 211.00 191.00
  Q 211.00 185.04 212.21 182.70
  C 215.63 176.12 225.41 176.34 228.82 182.75
  Q 230.01 184.96 230.00 189.47
  Q 229.97 201.47 230.04 213.48
  A 0.51 0.50 89.4 0 0 230.54 213.98
  Q 266.16 214.02 301.75 213.99
  Q 319.80 213.97 340.35 218.69
  A 0.41 0.41 6.9 0 0 340.85 218.30
  Q 341.13 203.47 340.98 188.74
  C 340.88 178.82 352.12 173.60 358.05 181.89
  C 360.27 184.98 359.99 187.65 359.99 191.39
  Q 359.97 207.49 360.05 223.59
  A 0.68 0.65 8.3 0 0 360.54 224.22
  L 369.29 226.61
  A 0.35 0.34 -85.4 0 0 369.72 226.24
  C 368.88 217.38 374.06 213.99 382.06 213.99
  Q 431.76 214.02 481.44 213.98
  A 0.61 0.60 -84.8 0 0 482.03 213.48
  C 484.87 198.01 500.02 188.38 515.06 194.35
  A 0.76 0.74 -57.0 0 0 515.87 194.17
  C 520.51 189.45 523.64 186.29 530.32 184.66
  C 540.82 182.11 551.21 187.07 556.76 196.33
  A 0.65 0.65 67.3 0 0 557.49 196.63
  Q 571.98 192.73 582.62 202.90
  A 0.85 0.83 -32.2 0 0 583.46 203.08
  Q 603.59 196.06 614.50 213.61
  A 0.92 0.91 -16.3 0 0 615.27 214.03
  Q 628.61 213.96 641.98 214.02
  Q 647.34 214.04 649.66 215.39
  C 655.93 219.05 655.71 228.18 649.54 231.76
  Q 647.34 233.03 643.17 233.00
  Q 630.38 232.90 617.56 233.13
  A 0.51 0.50 -0.6 0 0 617.06 233.63
  Q 616.95 269.62 617.01 305.49
  Q 617.03 322.40 612.07 343.35
  A 0.40 0.39 -83.1 0 0 612.45 343.84
  Q 628.78 344.15 645.00 343.96
  C 654.47 343.86 657.78 357.33 649.47 361.67
  Q 646.83 363.05 641.31 363.03
  Q 624.28 362.96 607.27 363.02
  A 0.67 0.66 8.1 0 0 606.63 363.49
  L 604.41 371.00
  A 0.47 0.46 12.9 0 0 604.78 371.58
  C 606.71 371.93 608.62 371.48 610.34 372.09
  C 616.29 374.22 617.00 378.57 617.00 384.72
  Q 617.00 434.61 617.00 484.54
  A 0.68 0.67 8.0 0 0 617.50 485.19
  C 632.85 489.49 640.97 503.08 635.64 518.50
  A 0.70 0.69 29.1 0 0 635.87 519.27
  C 648.16 528.65 649.24 545.80 638.21 556.47
  C 636.99 557.65 635.07 558.77 633.62 560.12
  A 0.85 0.82 62.4 0 0 633.38 560.94
  Q 637.05 575.33 626.92 585.72
  A 0.80 0.78 57.5 0 0 626.75 586.54
  Q 633.81 605.69 617.41 617.01
  A 0.95 0.94 73.0 0 0 617.00 617.79
  Q 617.00 630.68 617.00 643.65
  Q 617.00 648.56 616.04 650.76
  C 611.91 660.15 598.05 656.84 598.03 646.30
  Q 598.00 633.42 597.96 620.51
  A 0.50 0.50 0.0 0 0 597.46 620.01
  Q 564.00 620.02 530.58 619.98
  C 514.74 619.95 501.82 618.72 487.48 615.26
  A 0.39 0.39 6.5 0 0 487.00 615.64
  Q 487.01 629.89 486.99 644.21
  Q 486.98 649.07 485.70 651.43
  C 481.13 659.91 468.00 656.35 468.00 646.76
  Q 468.01 628.64 467.99 610.53
  A 0.68 0.63 -83.5 0 0 467.51 609.88
  L 458.71 607.63
  A 0.37 0.35 -85.8 0 0 458.27 608.03
  C 459.03 616.15 454.36 620.00 446.84 620.00
  Q 396.69 619.99 346.56 620.01
  A 0.60 0.60 5.2 0 0 345.97 620.50
  C 343.10 636.48 328.09 645.11 312.69 639.89
  A 0.80 0.79 -57.3 0 0 311.86 640.08
  C 310.17 641.78 308.60 643.73 306.82 645.09
  C 294.92 654.19 278.77 650.30 271.06 637.81
  A 0.68 0.67 -22.9 0 0 270.31 637.51
  Q 255.76 641.32 245.39 631.12
  A 0.80 0.77 -32.3 0 0 244.56 630.95
  Q 224.44 638.23 213.54 620.54
  A 0.91 0.91 74.9 0 0 212.78 620.10
  Q 198.40 619.94 183.95 619.98
  C 170.02 620.01 170.81 600.90 183.24 600.98
  Q 196.85 601.06 210.44 600.94
  A 0.50 0.50 0.0 0 0 210.94 600.44
  Z
  M 500.75 286.74
  C 500.76 300.83 481.71 300.06 481.76 286.98
  Q 481.80 275.19 481.67 263.25
  Q 481.67 262.74 481.25 263.01
  Q 472.21 268.87 472.03 279.77
  Q 471.90 287.93 472.27 304.93
  Q 472.35 308.20 473.99 311.00
  Q 485.15 329.99 496.21 349.05
  Q 501.60 358.34 500.81 371.23
  A 0.47 0.46 -88.2 0 0 501.27 371.73
  L 583.95 371.73
  A 0.67 0.64 7.4 0 0 584.59 371.26
  C 589.70 352.86 595.83 334.06 597.45 314.99
  Q 597.98 308.82 597.99 295.01
  Q 598.02 260.54 597.99 226.08
  Q 597.99 223.69 597.44 222.50
  C 596.20 219.75 592.01 219.01 590.23 221.51
  C 586.86 226.20 591.43 237.06 587.99 242.92
  C 584.28 249.23 574.65 249.08 571.34 242.35
  Q 570.24 240.11 570.25 234.49
  C 570.25 230.70 571.19 219.68 569.37 216.82
  C 567.35 213.67 561.91 213.97 560.41 217.24
  C 558.70 220.98 559.75 231.92 559.73 236.43
  C 559.65 250.44 540.78 250.72 540.76 235.46
  Q 540.75 222.51 540.73 209.58
  C 540.71 200.68 530.73 201.01 530.75 209.34
  Q 530.78 223.21 530.72 237.06
  Q 530.71 240.68 529.75 242.63
  C 526.17 249.91 515.50 249.71 512.53 242.15
  Q 511.69 240.04 511.73 235.24
  Q 511.79 225.75 511.74 216.24
  C 511.72 210.63 500.77 209.07 500.76 218.88
  Q 500.74 252.81 500.75 286.74
  Z
  M 244.58 246.70
  C 247.10 251.51 244.12 260.76 237.75 260.75
  Q 228.65 260.73 219.54 260.77
  C 209.73 260.82 210.53 271.33 219.65 271.27
  C 224.95 271.23 235.83 270.06 240.25 272.64
  C 246.51 276.30 246.63 285.45 240.11 288.99
  Q 237.78 290.25 232.17 290.25
  Q 219.93 290.25 207.68 290.25
  C 203.08 290.25 199.43 293.04 201.86 297.86
  Q 203.07 300.24 205.74 300.25
  Q 220.64 300.26 235.58 300.24
  C 249.12 300.22 249.80 319.32 235.57 319.26
  Q 226.20 319.21 216.85 319.28
  C 207.32 319.35 207.75 330.19 215.75 330.20
  Q 249.70 330.27 283.66 330.24
  Q 288.28 330.23 290.59 331.58
  C 296.82 335.24 296.63 344.18 290.38 347.83
  Q 288.02 349.20 282.73 349.23
  Q 272.07 349.28 261.65 349.25
  Q 260.80 349.25 261.27 349.96
  C 266.42 357.80 272.49 358.93 282.16 358.99
  Q 292.43 359.05 302.70 358.95
  Q 305.60 358.93 308.11 357.47
  Q 325.65 347.30 344.11 336.62
  Q 356.49 329.45 369.22 330.20
  A 0.47 0.46 1.8 0 0 369.72 329.74
  L 369.73 247.05
  A 0.67 0.65 -82.6 0 0 369.25 246.41
  C 346.78 240.11 325.14 233.24 301.50 233.14
  Q 263.06 232.98 224.63 233.01
  C 220.18 233.02 216.54 234.76 218.74 239.91
  Q 219.51 241.73 221.49 241.74
  C 228.37 241.77 240.83 239.54 244.58 246.70
  Z
  M 267.07 376.56
  C 254.16 373.00 244.16 362.92 240.42 349.96
  A 0.75 0.73 84.6 0 0 239.79 349.42
  Q 235.19 348.92 230.49 349.48
  A 0.57 0.55 86.6 0 0 230.01 350.04
  L 230.01 443.02
  A 0.48 0.48 0.0 0 0 230.49 443.50
  L 340.52 443.50
  A 0.49 0.48 -90.0 0 0 341.00 443.01
  Q 340.99 419.39 341.00 395.78
  C 341.01 380.25 360.03 381.66 360.02 394.75
  Q 359.98 421.77 360.01 448.79
  C 360.02 455.41 359.31 460.13 352.73 462.18
  C 350.90 462.75 348.68 462.39 346.62 462.59
  A 0.61 0.59 89.5 0 0 346.09 463.15
  C 345.61 468.85 346.75 472.80 349.79 478.05
  Q 358.90 493.80 368.02 509.54
  C 372.63 517.50 375.06 523.05 375.04 531.51
  C 375.02 541.39 375.76 553.66 374.06 562.10
  Q 369.59 584.36 346.52 591.92
  A 0.71 0.69 -9.3 0 0 346.03 592.58
  L 346.03 600.56
  A 0.45 0.44 0.0 0 0 346.48 601.00
  L 438.75 601.00
  A 0.49 0.49 0.0 0 0 439.24 600.51
  L 439.23 490.54
  A 0.51 0.50 0.0 0 0 438.72 490.04
  Q 410.49 489.97 382.24 490.00
  C 377.87 490.01 374.78 489.03 372.68 485.34
  C 369.44 479.63 373.09 471.02 380.06 471.01
  Q 412.92 470.98 445.77 471.01
  C 455.55 471.01 458.55 474.86 458.30 484.42
  A 0.53 0.52 -87.1 0 0 458.78 484.96
  C 464.86 485.41 468.96 484.15 474.53 480.90
  Q 491.71 470.87 508.93 460.91
  C 520.62 454.15 535.56 456.21 549.05 456.25
  C 567.85 456.31 581.72 466.17 587.59 484.35
  A 0.74 0.69 81.2 0 0 588.25 484.87
  L 597.48 484.96
  A 0.53 0.51 90.0 0 0 597.99 484.43
  L 598.00 391.25
  A 0.50 0.50 0.0 0 0 597.50 390.75
  L 487.48 390.75
  A 0.49 0.48 -90.0 0 0 487.00 391.24
  Q 487.00 418.63 487.00 446.00
  Q 486.99 453.45 481.71 456.15
  C 477.37 458.37 471.78 456.91 469.40 452.63
  Q 468.00 450.12 468.00 443.64
  Q 467.99 413.22 468.02 382.81
  C 468.02 377.60 469.60 374.06 474.37 372.20
  C 476.37 371.42 478.80 371.87 481.05 371.65
  A 0.64 0.64 -88.8 0 0 481.62 371.10
  Q 482.65 363.70 478.94 357.32
  Q 467.94 338.43 457.24 319.37
  C 450.85 308.00 452.98 292.36 453.02 279.74
  C 453.08 262.05 464.27 247.25 481.22 242.33
  A 0.68 0.65 -8.3 0 0 481.71 241.70
  L 481.70 233.53
  A 0.51 0.51 0.0 0 0 481.19 233.02
  L 389.28 233.04
  A 0.50 0.50 0.0 0 0 388.78 233.54
  L 388.78 343.46
  A 0.50 0.49 90.0 0 0 389.27 343.96
  Q 415.49 344.05 441.72 343.98
  Q 446.99 343.97 449.53 345.33
  C 456.07 348.84 455.96 357.84 449.54 361.70
  Q 447.38 363.00 443.18 363.00
  Q 411.84 363.00 380.49 363.00
  Q 374.09 363.00 371.08 358.43
  C 369.47 355.98 369.73 352.84 369.63 349.91
  A 0.59 0.58 -87.2 0 0 369.12 349.34
  C 363.89 348.78 359.93 349.54 355.11 352.29
  Q 336.59 362.89 318.10 373.52
  Q 310.18 378.07 301.00 378.07
  C 290.21 378.06 276.10 379.05 267.07 376.56
  Z
  M 268.25 597.15
  C 268.22 583.80 287.20 584.27 287.24 597.26
  Q 287.28 610.42 287.24 623.59
  C 287.23 627.61 287.77 631.01 292.45 631.02
  C 295.73 631.02 297.26 627.88 297.25 624.91
  Q 297.23 610.34 297.27 595.75
  C 297.31 583.27 316.46 581.99 316.30 597.78
  C 316.25 602.53 315.09 616.05 317.08 619.77
  C 319.78 624.80 327.00 622.56 327.00 616.77
  Q 326.99 583.03 327.01 549.29
  Q 327.01 545.26 327.66 543.41
  C 330.36 535.78 340.75 534.59 344.81 541.71
  Q 346.05 543.89 346.03 548.05
  Q 345.96 559.49 346.02 570.89
  Q 346.03 571.71 346.71 571.26
  C 353.74 566.54 355.74 560.87 355.75 552.17
  Q 355.76 540.65 355.75 529.13
  C 355.74 526.38 354.63 524.44 353.32 522.18
  Q 343.13 504.52 332.84 486.92
  Q 326.71 476.46 327.06 463.61
  A 1.08 1.08 -89.2 0 0 325.98 462.50
  L 243.85 462.50
  A 0.61 0.60 -81.6 0 0 243.27 462.94
  C 237.13 484.73 229.98 507.53 229.99 529.75
  Q 230.01 570.38 230.00 611.00
  Q 230.00 613.77 233.24 614.02
  C 242.87 614.75 236.59 597.05 240.04 591.11
  C 243.73 584.76 253.11 584.93 256.53 591.55
  Q 257.69 593.80 257.72 599.25
  C 257.74 603.08 256.78 614.95 258.87 617.66
  C 261.03 620.48 265.96 619.87 267.52 616.82
  C 269.29 613.38 268.26 601.49 268.25 597.15
  Z
  M 458.92 587.81
  C 476.84 592.70 494.73 598.52 513.28 600.35
  Q 519.93 601.00 533.25 601.00
  Q 569.71 600.99 606.20 601.01
  A 1.55 1.41 24.2 0 0 607.11 600.71
  C 612.76 596.41 609.00 592.17 603.69 592.23
  C 595.63 592.33 586.93 594.02 583.49 587.31
  C 580.16 580.83 584.75 573.24 591.73 573.25
  Q 600.73 573.26 609.72 573.24
  C 617.23 573.22 617.40 563.10 609.25 563.03
  Q 600.79 562.96 592.31 562.72
  C 579.68 562.38 580.10 543.83 593.00 543.80
  Q 606.73 543.76 620.48 543.74
  C 629.18 543.72 628.43 533.78 621.22 533.76
  Q 607.67 533.73 594.12 533.76
  Q 589.07 533.76 586.64 532.41
  C 580.23 528.85 580.43 519.34 587.07 515.88
  C 591.81 513.40 605.71 514.76 611.49 514.73
  C 620.42 514.68 620.65 504.00 611.89 504.00
  Q 576.60 504.01 541.31 503.99
  C 530.69 503.98 529.08 485.03 542.71 485.01
  Q 554.76 484.99 566.25 484.99
  Q 567.42 484.99 566.73 484.05
  C 561.59 476.95 556.63 475.23 547.56 475.24
  Q 535.55 475.26 524.68 475.25
  Q 522.16 475.25 519.97 476.52
  Q 500.72 487.72 481.71 498.74
  Q 471.70 504.54 458.75 504.05
  A 0.49 0.47 -88.9 0 0 458.26 504.54
  L 458.25 586.93
  A 0.91 0.90 -82.6 0 0 458.92 587.81
  Z"
/>
<circle fill="#059669" cx="409.05" cy="326.36" r="9.48"/>
<circle fill="#059669" cx="440.34" cy="326.37" r="9.47"/>
<circle fill="#059669" cx="319.00" cy="391.56" r="9.47"/>
<circle fill="#059669" cx="508.91" cy="409.55" r="9.48"/>
<circle fill="#059669" cx="319.00" cy="422.82" r="9.49"/>
<circle fill="#059669" cx="508.96" cy="440.83" r="9.48"/>
<circle fill="#059669" cx="389.03" cy="510.71" r="9.48"/>
<circle fill="#059669" cx="420.33" cy="510.74" r="9.47"/>
</svg>
