<?xml version="1.0" encoding="UTF-8" standalone="no"?>
<!DOCTYPE svg PUBLIC "-//W3C//DTD SVG 1.1//EN" "http://www.w3.org/Graphics/SVG/1.1/DTD/svg11.dtd">
<svg xmlns="http://www.w3.org/2000/svg" version="1.1" viewBox="0 0 834 834">
<path fill="#059669" d="
  M 222.29 290.36
  A 0.52 0.52 -32.8 0 0 222.47 289.53
  Q 210.27 276.23 209.33 259.69
  C 207.46 227.04 242.94 203.13 272.66 217.35
  C 297.80 229.38 305.80 259.55 291.02 283.00
  Q 290.75 283.43 291.25 283.43
  L 341.69 283.46
  A 0.51 0.50 -0.0 0 0 342.20 282.96
  Q 342.32 262.17 342.22 241.42
  Q 342.18 233.20 343.48 228.73
  C 347.89 213.56 359.78 208.20 374.65 208.23
  Q 408.76 208.28 442.57 208.24
  A 0.60 0.60 -83.7 0 0 443.14 207.78
  Q 448.46 186.24 464.17 174.21
  C 497.26 148.87 542.39 168.20 551.05 207.69
  A 0.62 0.61 83.5 0 0 551.65 208.17
  Q 587.74 208.32 623.74 208.25
  C 635.93 208.22 646.65 215.94 650.50 227.32
  Q 652.00 231.77 652.00 242.35
  Q 652.00 352.05 652.00 461.75
  C 652.00 472.94 642.90 483.47 632.76 486.73
  Q 628.01 488.25 616.58 488.25
  Q 576.73 488.25 537.16 488.25
  A 0.43 0.43 80.8 0 0 536.75 488.82
  L 563.04 567.19
  A 1.19 1.18 -9.1 0 0 564.17 568.00
  Q 597.33 568.00 630.87 568.00
  Q 635.69 568.00 637.95 569.07
  C 647.52 573.60 643.48 587.00 632.82 587.00
  Q 410.56 587.00 188.29 587.00
  Q 183.23 587.00 180.97 585.72
  C 174.39 582.00 174.66 572.38 181.28 569.16
  Q 183.71 567.97 189.40 568.00
  Q 198.94 568.04 208.48 567.95
  A 0.51 0.50 -90.0 0 0 208.98 567.44
  L 208.98 477.58
  A 0.56 0.56 -86.6 0 0 208.49 477.02
  C 191.53 474.97 177.20 462.98 172.79 446.66
  Q 171.29 441.08 171.27 428.60
  Q 171.23 397.67 171.30 366.75
  C 171.38 332.92 191.29 303.82 222.29 290.36
  Z
  M 531.46 207.54
  C 520.26 174.36 474.08 173.19 463.05 207.10
  A 0.88 0.87 -81.0 0 0 463.88 208.25
  L 530.96 208.25
  A 0.54 0.53 80.5 0 0 531.46 207.54
  Z
  M 361.67 283.31
  Q 398.97 283.68 436.29 283.45
  C 442.61 283.41 447.90 284.93 448.96 291.57
  C 449.76 296.60 447.56 307.41 444.98 312.69
  Q 433.26 336.59 408.68 341.03
  Q 403.19 342.02 388.74 342.01
  Q 346.79 341.98 304.99 342.01
  A 0.48 0.48 0.0 0 0 304.51 342.49
  L 304.53 567.46
  A 0.50 0.50 0.0 0 0 305.03 567.96
  L 436.72 567.98
  A 0.71 0.69 -80.7 0 0 437.38 567.49
  L 463.79 488.79
  A 0.42 0.41 -80.8 0 0 463.40 488.24
  Q 418.90 488.27 374.96 488.24
  Q 366.17 488.23 361.85 486.82
  C 349.95 482.95 342.29 472.28 342.27 459.75
  Q 342.23 433.43 342.27 407.10
  Q 342.27 403.44 342.99 401.63
  C 345.90 394.29 355.95 393.66 359.93 400.32
  Q 361.24 402.50 361.24 406.60
  Q 361.26 432.26 361.25 457.93
  C 361.24 465.98 364.95 469.24 373.09 469.24
  Q 497.50 469.26 621.91 469.24
  C 628.82 469.24 632.99 466.15 632.99 458.85
  Q 633.02 348.33 632.99 237.81
  C 632.99 229.58 628.50 227.25 620.65 227.25
  Q 496.27 227.25 371.89 227.25
  C 364.37 227.25 361.29 231.25 361.27 238.71
  Q 361.22 260.94 361.26 282.90
  A 0.41 0.41 0.0 0 0 361.67 283.31
  Z
  M 279.45 257.89
  A 25.52 25.52 0.0 0 0 253.93 232.37
  A 25.52 25.52 0.0 0 0 228.41 257.89
  A 25.52 25.52 0.0 0 0 253.93 283.41
  A 25.52 25.52 0.0 0 0 279.45 257.89
  Z
  M 261.38 454.31
  C 265.81 456.75 266.25 460.22 266.25 465.47
  Q 266.24 516.45 266.26 567.44
  A 0.52 0.51 89.4 0 0 266.77 567.95
  L 285.00 567.95
  A 0.51 0.49 90.0 0 0 285.49 567.44
  Q 285.51 451.24 285.50 335.05
  C 285.50 326.15 289.03 322.77 298.13 322.76
  Q 348.37 322.73 398.62 322.76
  C 412.38 322.77 422.75 316.05 428.32 303.24
  A 0.52 0.52 -78.4 0 0 427.84 302.51
  Q 345.17 302.46 262.19 302.53
  Q 249.22 302.54 242.55 303.94
  C 212.15 310.32 190.37 335.82 190.31 367.25
  Q 190.25 398.84 190.24 430.44
  Q 190.24 438.82 191.65 442.90
  Q 195.56 454.23 208.22 457.71
  A 0.61 0.61 7.9 0 0 209.00 457.12
  Q 208.99 413.66 209.01 370.32
  C 209.02 354.88 228.00 356.40 228.00 368.25
  Q 228.00 467.84 228.01 567.44
  A 0.51 0.49 -90.0 0 0 228.50 567.95
  L 246.76 567.98
  A 0.49 0.48 -89.4 0 0 247.25 567.49
  Q 247.24 515.95 247.26 464.40
  C 247.27 456.84 253.50 449.98 261.38 454.31
  Z
  M 484.05 488.60
  L 457.50 567.48
  A 0.36 0.36 -80.7 0 0 457.84 567.96
  L 542.51 567.94
  A 0.37 0.36 80.7 0 0 542.85 567.45
  L 516.57 488.77
  A 0.68 0.68 -8.7 0 0 515.92 488.30
  L 484.50 488.27
  A 0.48 0.47 -80.6 0 0 484.05 488.60
  Z"
/>
<circle fill="#059669" cx="599.94" cy="314.80" r="9.49"/>
<path fill="#059669" d="
  M 425.36 421.39
  Q 423.72 419.67 422.04 421.35
  Q 414.43 428.93 406.01 437.37
  Q 402.51 440.87 400.76 441.77
  C 391.31 446.64 382.51 434.08 390.13 426.34
  Q 402.04 414.25 414.09 402.29
  C 420.39 396.05 425.18 394.35 431.81 400.99
  Q 438.05 407.23 444.36 413.44
  A 0.53 0.52 45.8 0 0 445.08 413.46
  C 459.15 400.61 472.88 385.74 495.31 363.50
  C 500.83 358.04 505.84 358.12 511.14 363.54
  Q 517.50 370.04 524.12 376.24
  A 0.51 0.51 44.2 0 0 524.83 376.23
  Q 543.49 357.69 561.95 339.15
  Q 565.66 335.42 567.99 334.60
  C 575.50 331.96 582.83 338.84 580.27 346.31
  Q 579.32 349.09 575.06 353.34
  Q 554.39 373.96 533.75 394.63
  C 528.20 400.18 523.07 402.28 517.05 396.21
  Q 510.34 389.44 503.63 382.92
  A 0.66 0.66 44.7 0 0 502.70 382.92
  Q 477.53 408.12 452.33 433.27
  C 447.23 438.36 442.18 438.16 437.15 433.33
  Q 431.68 428.07 425.36 421.39
  Z"
/>
<circle fill="#059669" cx="351.80" cy="369.30" r="9.50"/>
</svg>
