<?xml version="1.0" encoding="UTF-8" standalone="no"?>
<!DOCTYPE svg PUBLIC "-//W3C//DTD SVG 1.1//EN" "http://www.w3.org/Graphics/SVG/1.1/DTD/svg11.dtd">
<svg xmlns="http://www.w3.org/2000/svg" version="1.1" viewBox="0 0 834 834">
<path fill="#059669" d="
  M 224.63 406.25
  C 224.53 367.38 247.78 331.97 284.48 317.72
  A 0.62 0.62 -33.9 0 0 284.69 316.69
  C 272.56 305.31 266.72 289.40 268.93 273.01
  C 273.55 238.72 311.77 219.62 342.05 236.21
  C 350.22 240.68 347.47 253.02 338.50 254.02
  C 334.50 254.47 330.05 251.25 326.87 250.37
  C 312.46 246.39 297.65 252.85 290.89 266.31
  C 282.37 283.29 290.88 302.66 308.42 309.00
  C 313.42 310.81 319.17 310.93 324.57 310.73
  A 1.40 1.38 17.1 0 0 325.61 310.19
  Q 345.30 284.76 374.35 273.70
  A 0.31 0.30 -34.4 0 0 374.45 273.19
  C 352.01 253.28 347.71 220.25 366.69 196.44
  C 401.56 152.73 471.62 182.91 464.58 237.73
  Q 462.54 253.59 451.77 266.29
  Q 449.44 269.04 447.12 271.80
  A 0.34 0.34 29.1 0 0 447.28 272.34
  Q 479.60 283.14 500.06 310.26
  A 1.07 1.00 71.0 0 0 500.86 310.68
  Q 518.74 311.19 528.18 297.45
  C 544.37 273.88 522.89 243.08 495.11 250.28
  C 491.93 251.10 487.77 253.84 484.29 253.75
  Q 477.63 253.58 475.46 247.52
  C 473.27 241.36 476.93 236.96 482.60 234.56
  C 533.76 212.95 576.62 275.32 538.01 315.32
  A 0.42 0.41 -58.5 0 0 538.17 316.00
  C 571.15 327.71 596.22 356.16 601.04 391.35
  Q 601.91 397.67 601.97 411.32
  Q 602.06 433.49 601.98 455.66
  C 601.93 470.94 583.00 469.67 583.00 456.74
  Q 583.01 431.51 583.00 406.25
  C 583.00 364.69 553.04 334.32 512.49 329.95
  A 0.55 0.54 81.7 0 0 511.93 330.71
  Q 520.27 349.96 520.35 371.50
  Q 520.52 413.18 520.48 454.85
  Q 520.46 468.32 518.96 474.37
  C 514.39 492.78 500.19 506.78 481.69 511.51
  Q 477.62 512.55 473.50 513.44
  A 0.64 0.62 -6.4 0 0 473.00 514.05
  L 473.00 636.74
  A 0.49 0.48 89.4 0 0 473.49 637.23
  L 495.02 637.20
  A 0.51 0.49 90.0 0 0 495.51 636.69
  L 495.17 533.59
  Q 495.16 531.75 496.23 530.28
  C 502.27 522.03 514.09 524.31 514.18 535.20
  Q 514.57 585.95 514.51 636.69
  A 0.51 0.51 0.0 0 0 515.02 637.20
  L 541.02 637.20
  A 0.50 0.50 89.4 0 0 541.52 636.69
  Q 541.37 523.19 541.02 409.71
  Q 541.00 405.34 541.72 403.39
  C 544.55 395.71 555.48 395.11 559.06 402.57
  Q 560.04 404.60 560.05 408.61
  Q 560.37 522.65 560.55 636.70
  A 0.51 0.51 0.0 0 0 561.06 637.21
  Q 600.90 637.28 640.70 637.25
  C 653.70 637.24 654.04 656.25 639.91 656.25
  Q 417.57 656.25 195.23 656.25
  C 180.58 656.25 180.87 637.23 194.52 637.25
  Q 231.01 637.29 267.48 637.20
  A 0.50 0.50 0.0 0 0 267.98 636.70
  Q 268.02 522.58 267.99 408.51
  Q 267.99 403.18 271.05 400.08
  C 275.46 395.59 283.16 396.71 285.99 402.43
  Q 287.25 404.98 287.25 410.42
  Q 287.24 523.55 287.26 636.69
  A 0.51 0.49 -90.0 0 0 287.75 637.20
  L 309.49 637.20
  A 0.51 0.50 -89.4 0 0 309.99 636.70
  Q 310.01 586.36 310.01 536.04
  C 310.01 521.51 329.03 521.59 329.02 536.53
  Q 328.98 586.64 329.01 636.76
  A 0.48 0.47 90.0 0 0 329.48 637.24
  L 353.75 637.25
  A 0.50 0.49 -90.0 0 0 354.24 636.75
  L 354.23 513.82
  A 0.54 0.53 2.3 0 0 353.73 513.29
  C 331.22 511.73 311.94 495.93 306.68 474.14
  Q 305.24 468.18 305.25 455.72
  Q 305.26 413.74 305.27 371.75
  Q 305.28 350.34 313.57 331.25
  Q 314.11 330.02 312.77 330.18
  C 280.21 334.04 252.10 356.71 245.43 389.42
  Q 244.04 396.24 244.02 409.31
  Q 243.98 431.18 244.00 453.05
  Q 244.01 459.05 242.96 461.31
  C 239.60 468.56 229.35 468.52 225.94 461.46
  Q 224.79 459.08 224.77 453.70
  Q 224.69 429.99 224.63 406.25
  Z
  M 445.99 230.73
  A 36.10 36.10 0.0 0 0 409.89 194.63
  A 36.10 36.10 0.0 0 0 373.79 230.73
  A 36.10 36.10 0.0 0 0 409.89 266.83
  A 36.10 36.10 0.0 0 0 445.99 230.73
  Z
  M 354.25 375.29
  C 354.25 361.84 373.25 362.69 373.25 373.75
  Q 373.24 505.22 373.26 636.69
  A 0.51 0.50 90.0 0 0 373.76 637.20
  L 401.23 637.20
  A 0.51 0.51 0.0 0 0 401.74 636.69
  Q 401.77 572.16 401.74 507.62
  C 401.74 494.04 420.77 493.05 420.76 508.87
  Q 420.71 572.70 420.80 636.59
  A 0.51 0.51 0.0 0 0 421.31 637.10
  L 453.49 637.19
  A 0.50 0.49 -89.4 0 0 453.99 636.69
  Q 454.01 505.47 454.17 374.25
  C 454.18 362.25 473.01 361.41 473.00 376.54
  Q 472.99 434.98 473.01 493.45
  A 0.44 0.44 86.6 0 0 473.50 493.89
  C 486.28 492.30 496.62 482.75 500.06 471.05
  Q 501.51 466.11 501.51 455.29
  Q 501.48 417.40 501.51 379.48
  Q 501.52 366.30 500.48 359.55
  C 492.56 308.02 441.25 276.32 390.93 288.62
  C 356.37 297.07 329.94 325.20 325.08 360.54
  Q 324.21 366.86 324.23 380.50
  Q 324.30 419.82 324.22 459.16
  C 324.18 477.89 334.39 490.75 353.30 494.28
  A 0.80 0.80 5.4 0 0 354.25 493.50
  Q 354.25 434.39 354.25 375.29
  Z"
/>
<circle fill="#059669" cx="234.39" cy="492.94" r="9.49"/>
<circle fill="#059669" cx="591.58" cy="492.96" r="9.49"/>
</svg>
