<?xml version="1.0" encoding="UTF-8" standalone="no"?>
<!DOCTYPE svg PUBLIC "-//W3C//DTD SVG 1.1//EN" "http://www.w3.org/Graphics/SVG/1.1/DTD/svg11.dtd">
<svg xmlns="http://www.w3.org/2000/svg" version="1.1" viewBox="0 0 834 834">
<path fill="#912f72" d="
  M 651.80 352.93
  A 235.14 235.14 0.0 0 1 416.66 588.07
  A 235.14 235.14 0.0 0 1 181.52 352.93
  A 235.14 235.14 0.0 0 1 416.66 117.79
  A 235.14 235.14 0.0 0 1 651.80 352.93
  Z
  M 202.75 407.99
  C 221.99 482.15 278.98 541.81 352.33 564.20
  C 430.98 588.21 514.82 566.47 572.87 508.86
  Q 573.92 507.82 572.48 507.48
  Q 557.62 503.97 545.35 511.45
  Q 544.38 512.04 537.31 517.84
  C 529.35 524.38 519.01 529.19 508.52 529.24
  C 505.23 529.26 501.17 529.70 498.02 528.77
  C 489.23 526.18 482.70 524.28 475.49 518.16
  Q 470.51 513.92 470.51 513.92
  Q 451.93 500.06 431.77 511.15
  C 427.02 513.76 422.35 518.89 417.79 521.78
  C 402.03 531.79 382.51 532.04 366.74 522.10
  C 362.69 519.55 358.34 515.13 354.06 512.21
  C 345.52 506.38 334.85 504.72 324.97 507.87
  C 314.25 511.29 307.50 519.02 300.38 527.37
  A 0.90 0.89 -46.4 0 1 299.05 527.41
  L 291.61 519.57
  A 0.55 0.55 -0.0 0 1 291.61 518.83
  C 297.89 511.82 305.24 503.80 313.23 499.73
  C 328.51 491.94 348.62 492.54 362.49 503.25
  C 365.84 505.84 369.18 509.70 372.84 511.82
  Q 389.66 521.57 407.55 513.74
  C 414.96 510.50 419.77 503.90 426.75 499.93
  C 442.14 491.16 460.70 492.95 475.30 502.44
  C 479.79 505.36 485.22 511.39 491.14 514.03
  Q 504.75 520.11 519.15 515.08
  C 526.84 512.40 532.39 505.17 538.54 501.48
  Q 558.98 489.23 582.29 498.28
  A 0.69 0.69 -59.2 0 0 583.07 498.08
  Q 590.90 488.81 597.95 478.92
  A 0.56 0.56 33.0 0 0 597.78 478.12
  Q 591.87 474.52 586.49 469.91
  C 573.99 459.19 558.42 457.73 544.52 466.23
  Q 542.72 467.34 536.98 472.29
  C 520.41 486.59 496.64 487.79 478.59 474.90
  C 475.23 472.50 471.48 468.60 467.83 466.36
  Q 449.07 454.84 430.49 466.27
  C 426.51 468.73 422.18 473.11 418.06 475.84
  C 400.03 487.78 377.16 485.99 360.85 472.11
  C 355.34 467.42 352.34 464.91 346.74 462.97
  C 325.29 455.53 313.58 466.86 300.21 481.17
  A 0.50 0.50 43.0 0 1 299.50 481.19
  L 292.05 474.19
  A 1.02 1.02 41.4 0 1 291.96 472.79
  C 303.64 458.77 316.62 448.50 336.01 448.91
  A 0.31 0.30 -12.5 0 0 336.30 448.47
  L 314.84 405.41
  Q 314.05 403.83 312.24 403.72
  Q 304.41 403.23 296.07 403.65
  Q 292.39 403.83 289.58 400.58
  A 1.38 1.28 -67.4 0 1 289.25 399.69
  L 289.25 373.29
  A 1.64 1.35 67.6 0 1 289.53 372.38
  C 291.11 370.22 293.20 369.25 296.05 369.25
  Q 434.98 369.25 573.94 369.24
  A 0.51 0.50 -0.0 0 0 574.45 368.74
  Q 574.53 345.22 574.51 321.70
  C 574.51 319.51 574.83 317.31 575.20 315.24
  Q 575.56 313.27 577.50 312.76
  C 582.48 311.44 587.74 313.73 590.71 308.70
  Q 599.55 293.71 614.97 270.11
  C 615.88 268.72 617.54 267.41 618.70 266.32
  A 1.59 1.59 56.7 0 0 619.07 264.51
  Q 609.53 243.19 596.37 224.78
  A 1.04 1.01 -15.2 0 0 595.59 224.35
  L 472.56 217.52
  A 0.48 0.47 1.7 0 0 472.05 217.99
  L 472.01 231.20
  A 2.03 1.96 15.1 0 0 473.04 232.93
  C 475.70 234.42 478.83 235.52 480.98 237.47
  Q 493.24 248.61 486.92 265.44
  A 0.62 0.61 10.2 0 0 487.50 266.27
  Q 521.91 266.19 556.07 266.31
  C 561.81 266.33 563.24 268.98 563.24 274.44
  Q 563.25 312.96 563.12 351.51
  Q 563.10 357.97 556.74 357.98
  Q 521.54 358.06 376.49 357.90
  C 368.44 357.89 369.08 352.75 369.05 346.08
  Q 368.87 309.54 369.11 272.97
  C 369.14 267.81 371.99 266.36 376.91 266.33
  Q 410.83 266.16 444.71 266.28
  A 0.81 0.78 83.0 0 0 445.46 265.28
  L 443.11 255.54
  A 0.41 0.41 -6.7 0 1 443.51 255.04
  L 453.25 254.99
  A 1.14 1.01 -17.7 0 1 454.09 255.36
  C 455.52 257.03 455.73 259.42 456.75 260.96
  C 460.81 267.07 468.71 268.19 474.14 263.07
  C 479.80 257.73 477.79 248.78 471.43 245.19
  C 467.54 243.00 460.55 244.72 460.54 238.25
  Q 460.52 227.78 460.47 217.31
  A 0.53 0.52 1.1 0 0 459.96 216.79
  Q 446.50 216.10 433.07 215.44
  Q 425.99 215.09 425.97 208.01
  Q 425.94 195.01 426.05 182.00
  C 426.08 177.92 428.20 175.01 432.53 175.01
  Q 489.73 174.99 546.93 175.00
  Q 547.32 175.00 547.00 174.77
  C 488.33 132.04 412.74 120.26 343.80 144.43
  C 236.03 182.20 173.98 297.11 202.75 407.99
  Z
  M 494.10 205.97
  Q 493.38 205.36 492.54 204.98
  Q 476.94 198.02 461.55 190.56
  C 454.08 186.94 446.83 186.42 438.80 187.10
  A 0.54 0.53 -2.9 0 0 438.30 187.64
  L 438.38 203.17
  A 0.53 0.52 1.8 0 0 438.88 203.69
  L 493.78 206.77
  Q 495.13 206.84 494.10 205.97
  Z
  M 485.05 187.19
  Q 482.88 187.19 484.85 188.09
  L 527.07 207.46
  Q 528.70 208.21 530.22 207.29
  L 562.29 188.05
  A 0.43 0.27 -20.6 0 0 562.50 187.77
  L 562.51 187.58
  A 0.43 0.34 0.6 0 0 562.08 187.23
  L 485.05 187.19
  Z
  M 585.84 211.04
  L 572.65 196.65
  A 0.67 0.65 -36.6 0 0 571.82 196.54
  L 550.78 209.16
  Q 549.53 209.91 550.99 209.99
  L 585.41 211.90
  Q 586.69 211.97 585.84 211.04
  Z
  M 623.00 279.46
  L 603.37 310.80
  Q 602.62 312.00 604.04 312.00
  L 633.23 311.95
  A 0.42 0.41 -5.2 0 0 633.64 311.47
  Q 630.35 294.61 625.01 279.69
  Q 624.22 277.50 623.00 279.46
  Z
  M 551.25 279.18
  A 0.43 0.43 0.0 0 0 550.82 278.75
  L 381.68 278.75
  A 0.43 0.43 0.0 0 0 381.25 279.18
  L 381.25 288.32
  A 0.43 0.43 0.0 0 0 381.68 288.75
  L 550.82 288.75
  A 0.43 0.43 0.0 0 0 551.25 288.32
  L 551.25 279.18
  Z
  M 587.99 367.86
  A 2.41 2.39 -22.9 0 0 589.61 368.51
  L 636.44 369.18
  A 0.53 0.53 -87.8 0 0 636.98 368.68
  Q 637.77 358.16 637.45 347.52
  A 0.52 0.52 88.9 0 0 636.93 347.02
  L 589.30 347.01
  Q 586.54 347.00 586.73 349.76
  C 586.97 353.11 586.05 366.05 587.99 367.86
  Z
  M 588.88 455.78
  Q 596.37 462.88 604.12 468.17
  A 0.79 0.78 32.1 0 0 605.24 467.92
  L 612.21 455.69
  A 0.46 0.46 -75.2 0 0 611.81 455.00
  L 589.18 455.01
  Q 588.07 455.01 588.88 455.78
  Z
  M 360.75 455.91
  C 371.92 465.98 380.06 473.05 395.81 471.58
  C 407.74 470.46 415.35 463.40 423.47 455.95
  Q 424.22 455.26 423.20 455.26
  L 361.00 455.26
  Q 360.02 455.26 360.75 455.91
  Z
  M 474.99 456.22
  Q 479.87 460.38 484.12 463.87
  C 495.61 473.29 511.59 474.45 524.33 466.82
  C 528.58 464.28 533.34 459.57 537.75 455.98
  Q 538.64 455.26 537.50 455.26
  L 475.35 455.26
  Q 473.87 455.26 474.99 456.22
  Z"
/>
<circle fill="#912f72" cx="416.64" cy="694.62" r="20.95"/>
</svg>
