<?xml version="1.0" encoding="UTF-8" standalone="no"?>
<!DOCTYPE svg PUBLIC "-//W3C//DTD SVG 1.1//EN" "http://www.w3.org/Graphics/SVG/1.1/DTD/svg11.dtd">
<svg xmlns="http://www.w3.org/2000/svg" version="1.1" viewBox="0 0 834 834">
<path fill="#059669" d="
  M 249.42 237.55
  A 41.13 41.13 0.0 0 1 208.29 278.68
  A 41.13 41.13 0.0 0 1 167.16 237.55
  A 41.13 41.13 0.0 0 1 208.29 196.42
  A 41.13 41.13 0.0 0 1 249.42 237.55
  Z
  M 230.35 237.54
  A 22.06 22.06 0.0 0 0 208.29 215.48
  A 22.06 22.06 0.0 0 0 186.23 237.54
  A 22.06 22.06 0.0 0 0 208.29 259.60
  A 22.06 22.06 0.0 0 0 230.35 237.54
  Z"
/>
<path fill="#059669" d="
  M 643.99 237.53
  A 41.13 41.13 0.0 0 1 602.86 278.66
  A 41.13 41.13 0.0 0 1 561.73 237.53
  A 41.13 41.13 0.0 0 1 602.86 196.40
  A 41.13 41.13 0.0 0 1 643.99 237.53
  Z
  M 624.91 237.55
  A 22.07 22.07 0.0 0 0 602.84 215.48
  A 22.07 22.07 0.0 0 0 580.77 237.55
  A 22.07 22.07 0.0 0 0 602.84 259.62
  A 22.07 22.07 0.0 0 0 624.91 237.55
  Z"
/>
<path fill="#059669" d="
  M 576.80 434.66
  A 167.09 167.09 0.0 0 1 409.71 601.75
  A 167.09 167.09 0.0 0 1 242.62 434.66
  A 167.09 167.09 0.0 0 1 409.71 267.57
  A 167.09 167.09 0.0 0 1 576.80 434.66
  Z
  M 399.71 288.89
  C 376.16 296.41 360.28 321.00 351.99 342.76
  A 0.35 0.34 -79.9 0 0 352.31 343.23
  L 399.73 343.24
  A 0.50 0.50 0.0 0 0 400.23 342.74
  L 400.19 289.24
  A 0.37 0.36 80.9 0 0 399.71 288.89
  Z
  M 467.34 342.63
  C 458.94 320.70 443.50 297.00 420.25 288.98
  A 0.75 0.74 9.5 0 0 419.26 289.68
  L 419.28 342.69
  A 0.51 0.50 90.0 0 0 419.78 343.20
  L 467.02 343.10
  A 0.35 0.34 79.5 0 0 467.34 342.63
  Z
  M 356.46 296.54
  C 333.25 305.59 308.65 322.23 293.97 342.72
  Q 293.67 343.14 294.19 343.14
  L 330.71 343.18
  A 0.69 0.68 -80.5 0 0 331.36 342.71
  Q 340.07 317.92 356.64 296.78
  Q 356.98 296.33 356.46 296.54
  Z
  M 525.44 342.78
  C 510.89 322.48 486.65 305.87 463.67 296.80
  Q 462.42 296.31 463.25 297.37
  Q 479.20 317.71 488.08 342.76
  A 0.71 0.71 -9.9 0 0 488.75 343.23
  L 525.23 343.19
  Q 525.73 343.19 525.44 342.78
  Z
  M 280.32 362.71
  Q 264.50 391.47 261.96 424.36
  A 0.83 0.83 -88.1 0 0 262.79 425.25
  L 315.60 425.24
  A 0.66 0.66 -88.6 0 0 316.26 424.61
  Q 317.44 392.85 324.89 362.79
  A 0.40 0.39 -83.1 0 0 324.51 362.30
  L 281.05 362.27
  A 0.85 0.82 -75.3 0 0 280.32 362.71
  Z
  M 344.82 362.71
  Q 336.34 393.35 335.33 424.72
  A 0.49 0.47 1.1 0 0 335.82 425.21
  L 399.76 425.23
  A 0.48 0.48 0.0 0 0 400.24 424.75
  L 400.22 362.79
  A 0.51 0.50 90.0 0 0 399.72 362.28
  L 345.41 362.26
  A 0.61 0.61 7.4 0 0 344.82 362.71
  Z
  M 483.81 419.94
  Q 482.22 389.79 474.61 362.76
  A 0.68 0.67 -8.0 0 0 473.96 362.28
  L 419.74 362.27
  A 0.47 0.47 0.6 0 0 419.26 362.74
  L 419.28 424.71
  A 0.51 0.51 0.0 0 0 419.79 425.22
  L 483.43 425.23
  A 0.53 0.51 1.1 0 0 483.96 424.74
  Q 484.00 423.39 483.81 419.94
  Z
  M 494.37 362.81
  Q 502.27 393.37 503.07 424.71
  A 0.55 0.55 89.5 0 0 503.62 425.25
  L 557.17 425.25
  A 0.28 0.28 88.1 0 0 557.45 424.95
  Q 555.20 391.70 539.01 362.68
  A 0.84 0.81 -13.7 0 0 538.28 362.25
  L 494.81 362.25
  A 0.45 0.45 -7.0 0 0 494.37 362.81
  Z
  M 262.06 445.24
  Q 264.49 475.47 277.42 501.08
  A 1.22 1.20 76.3 0 0 278.50 501.75
  L 322.97 501.74
  A 0.59 0.59 -6.2 0 0 323.55 501.02
  Q 317.21 472.63 316.26 444.78
  A 0.52 0.52 88.9 0 0 315.74 444.28
  L 262.96 444.26
  A 0.91 0.90 87.7 0 0 262.06 445.24
  Z
  M 335.41 445.02
  Q 336.38 473.83 343.31 501.24
  A 0.66 0.66 83.3 0 0 343.95 501.75
  L 399.75 501.75
  A 0.50 0.49 -90.0 0 0 400.24 501.25
  L 400.22 444.78
  A 0.51 0.50 0.0 0 0 399.71 444.28
  L 336.14 444.26
  A 0.73 0.73 88.9 0 0 335.41 445.02
  Z
  M 475.94 501.27
  Q 482.96 474.48 484.00 445.13
  A 0.85 0.84 1.0 0 0 483.15 444.26
  L 419.73 444.26
  A 0.48 0.48 0.0 0 0 419.25 444.74
  L 419.25 501.27
  A 0.49 0.48 0.0 0 0 419.74 501.75
  L 475.32 501.75
  A 0.64 0.63 6.9 0 0 475.94 501.27
  Z
  M 502.70 450.18
  Q 501.58 475.85 495.82 501.09
  A 0.40 0.39 -83.5 0 0 496.20 501.58
  L 541.31 501.61
  A 0.80 0.78 -76.7 0 0 542.02 501.16
  Q 555.25 474.54 557.43 444.79
  A 0.46 0.46 -87.7 0 0 556.97 444.29
  L 503.80 444.27
  A 0.59 0.57 3.9 0 0 503.22 444.76
  Q 502.81 447.50 502.70 450.18
  Z
  M 289.88 521.54
  C 306.79 544.60 329.66 562.28 356.28 572.75
  Q 356.89 572.99 356.49 572.47
  Q 338.56 549.33 329.52 521.32
  A 0.68 0.68 -8.7 0 0 328.87 520.85
  L 290.26 520.79
  Q 289.33 520.78 289.88 521.54
  Z
  M 349.74 521.16
  C 358.09 544.50 374.52 572.55 399.75 580.54
  A 0.38 0.38 -81.6 0 0 400.24 580.17
  L 400.24 521.23
  A 0.48 0.48 0.0 0 0 399.76 520.75
  L 350.03 520.76
  A 0.31 0.30 -9.5 0 0 349.74 521.16
  Z
  M 419.79 580.37
  C 444.92 572.32 461.39 544.67 469.59 521.31
  A 0.36 0.35 -79.9 0 0 469.27 520.83
  L 419.79 520.81
  A 0.50 0.50 0.0 0 0 419.29 521.31
  L 419.31 580.03
  A 0.37 0.37 -9.5 0 0 419.79 580.37
  Z
  M 462.98 572.27
  Q 462.38 573.04 463.28 572.68
  Q 503.56 556.78 529.56 521.47
  Q 530.09 520.76 529.20 520.76
  L 490.77 520.75
  A 0.71 0.71 9.9 0 0 490.10 521.22
  C 483.27 539.92 475.50 556.31 462.98 572.27
  Z"
/>
<circle fill="#059669" cx="261.13" cy="291.38" r="9.49"/>
<circle fill="#059669" cx="553.32" cy="291.37" r="9.49"/>
<circle fill="#059669" cx="260.27" cy="580.60" r="9.48"/>
<circle fill="#059669" cx="553.31" cy="581.95" r="9.49"/>
<path fill="#059669" d="
  M 249.43 635.92
  A 41.13 41.13 0.0 0 1 208.30 677.05
  A 41.13 41.13 0.0 0 1 167.17 635.92
  A 41.13 41.13 0.0 0 1 208.30 594.79
  A 41.13 41.13 0.0 0 1 249.43 635.92
  Z
  M 230.36 635.93
  A 22.07 22.07 0.0 0 0 208.29 613.86
  A 22.07 22.07 0.0 0 0 186.22 635.93
  A 22.07 22.07 0.0 0 0 208.29 658.00
  A 22.07 22.07 0.0 0 0 230.36 635.93
  Z"
/>
<path fill="#059669" d="
  M 643.98 635.92
  A 41.14 41.14 0.0 0 1 602.84 677.06
  A 41.14 41.14 0.0 0 1 561.70 635.92
  A 41.14 41.14 0.0 0 1 602.84 594.78
  A 41.14 41.14 0.0 0 1 643.98 635.92
  Z
  M 624.92 635.91
  A 22.06 22.06 0.0 0 0 602.86 613.85
  A 22.06 22.06 0.0 0 0 580.80 635.91
  A 22.06 22.06 0.0 0 0 602.86 657.97
  A 22.06 22.06 0.0 0 0 624.92 635.91
  Z"
/>
</svg>
