<?xml version="1.0" encoding="UTF-8" standalone="no"?>
<!DOCTYPE svg PUBLIC "-//W3C//DTD SVG 1.1//EN" "http://www.w3.org/Graphics/SVG/1.1/DTD/svg11.dtd">
<svg xmlns="http://www.w3.org/2000/svg" version="1.1" viewBox="0.00 0.00 541.00 669.00">
<path fill="#2eb157" d="
  M 154.87 232.85
  A 2.44 2.44 0.0 0 1 152.39 231.72
  C 130.94 196.61 128.00 153.62 142.14 114.84
  C 152.85 85.48 170.47 60.31 191.89 37.27
  C 201.33 27.13 212.79 17.24 223.64 7.39
  Q 224.68 6.44 225.43 7.63
  C 237.46 26.70 244.83 51.08 248.57 73.11
  C 256.66 120.88 240.44 165.77 205.54 198.80
  Q 188.34 215.08 162.62 229.26
  C 160.35 230.51 157.54 232.39 154.87 232.85
  Z"
/>
<path fill="#2eb157" d="
  M 99.48 169.16
  C 115.05 187.39 119.75 209.59 121.35 233.70
  A 1.81 1.80 -4.4 0 1 119.70 235.62
  C 62.55 240.54 30.86 189.38 19.42 141.06
  Q 19.07 139.58 20.58 139.42
  Q 22.18 139.24 24.31 139.22
  C 51.93 138.97 81.05 147.59 99.48 169.16
  Z"
/>
<path fill="#b4d24a" d="
  M 133.18 280.68
  C 178.43 231.95 242.12 205.21 309.02 208.53
  C 328.61 209.50 348.26 213.47 367.10 219.12
  A 0.84 0.84 0.0 0 1 367.31 220.63
  Q 366.36 221.24 364.76 220.97
  C 353.50 219.04 343.73 218.83 331.53 220.17
  C 324.44 220.95 316.80 221.54 310.27 222.66
  C 271.13 229.40 233.80 250.40 207.20 278.70
  C 178.99 308.73 157.94 354.12 158.10 395.69
  C 158.18 417.67 157.43 431.66 162.36 449.47
  Q 162.56 450.20 162.09 449.61
  Q 160.01 447.01 159.56 446.19
  C 154.35 436.80 148.11 426.83 144.09 417.92
  C 128.74 383.92 121.68 347.79 125.51 310.75
  Q 126.38 302.37 126.28 295.94
  Q 126.27 295.38 126.55 294.90
  Q 128.31 291.92 127.70 288.37
  Q 127.61 287.83 127.92 287.38
  Q 130.35 283.73 133.18 280.68
  Z"
/>
<path fill="#c51776" d="
  M 485.93 380.56
  C 470.84 294.15 388.06 230.54 301.04 240.14
  A 1.38 1.38 0.0 0 1 299.86 237.86
  Q 300.46 237.18 301.88 237.59
  Q 302.36 237.74 302.85 237.60
  C 323.83 231.83 339.96 228.83 360.01 229.18
  C 445.41 230.65 514.01 292.68 524.24 377.63
  C 531.91 441.37 500.98 502.91 447.50 537.02
  C 437.84 543.19 426.16 548.65 415.18 553.66
  Q 414.07 554.16 413.32 554.22
  A 0.54 0.54 0.0 0 1 412.99 553.23
  C 429.96 542.42 444.07 528.19 455.93 511.97
  C 483.86 473.77 494.06 427.14 485.93 380.56
  Z"
/>
<path fill="#e8e12e" d="
  M 298.85 588.45
  C 280.65 588.06 262.95 589.16 244.25 586.04
  C 168.48 573.39 111.49 523.82 77.97 456.53
  Q 74.52 449.60 74.20 440.95
  Q 72.09 383.67 97.32 332.49
  Q 102.43 322.13 107.81 311.87
  Q 109.04 309.53 110.72 307.95
  A 0.72 0.72 0.0 0 1 111.93 308.52
  C 110.82 325.74 110.58 343.80 112.81 360.70
  C 119.41 410.54 144.16 451.97 175.23 490.36
  C 182.41 499.22 188.89 510.01 194.41 517.36
  Q 230.43 565.27 288.63 584.48
  C 291.77 585.52 296.29 585.43 299.24 586.76
  Q 303.20 588.54 298.85 588.45
  Z"
/>
<path fill="#902d70" d="
  M 282.77 524.49
  C 251.83 495.49 236.29 452.28 247.39 410.48
  C 257.92 370.80 291.09 339.00 332.66 334.08
  C 337.30 333.53 342.90 334.11 347.00 334.05
  C 388.77 333.39 428.51 372.69 426.64 414.55
  C 425.39 442.30 409.35 465.68 383.09 475.19
  C 357.28 484.54 328.68 474.35 317.12 448.39
  Q 307.53 426.84 320.67 407.44
  Q 325.31 400.59 332.47 396.54
  A 0.25 0.24 -81.7 0 1 332.76 396.93
  C 320.23 409.01 314.71 428.64 324.66 444.31
  C 344.77 475.98 385.17 469.03 400.66 437.80
  C 410.15 418.66 406.32 397.93 391.39 381.89
  C 373.62 362.80 347.93 355.14 323.36 365.88
  C 279.93 384.85 263.27 436.70 289.27 477.40
  C 311.61 512.38 352.96 530.92 393.70 521.33
  C 423.00 514.44 452.60 492.48 467.35 466.14
  Q 467.95 465.07 468.82 464.72
  A 0.43 0.43 0.0 0 1 469.37 465.30
  C 464.88 475.39 460.02 485.88 454.55 494.84
  Q 430.47 534.24 389.25 556.26
  C 385.74 558.14 382.57 559.22 378.40 559.40
  C 342.90 560.94 308.77 548.87 282.77 524.49
  Z"
/>
<path fill="#de8c39" d="
  M 83.41 491.69
  C 83.80 491.73 83.67 491.97 83.79 492.14
  C 120.56 549.41 177.41 588.75 244.99 599.51
  C 261.74 602.17 279.78 602.80 296.82 601.90
  C 302.47 601.60 308.35 601.70 313.69 600.96
  Q 329.50 598.79 344.80 594.28
  Q 350.50 592.59 354.90 592.21
  C 359.99 591.76 365.44 592.28 370.34 590.82
  C 372.57 590.16 374.94 590.34 376.86 589.99
  Q 424.35 581.37 460.09 552.58
  Q 470.60 544.11 482.82 530.95
  C 495.65 517.13 505.35 502.36 512.81 485.16
  A 0.68 0.68 0.0 0 1 514.12 485.41
  Q 514.15 486.50 513.65 488.09
  C 504.30 517.76 491.43 545.14 471.87 569.39
  C 435.21 614.82 385.65 643.62 327.54 651.55
  C 323.34 652.12 319.34 653.03 315.12 653.00
  C 296.75 652.87 280.99 653.84 263.76 651.00
  Q 176.04 636.54 121.26 567.25
  C 103.19 544.39 92.20 519.39 82.46 492.08
  A 0.64 0.40 -81.9 0 1 83.14 491.27
  Q 83.24 491.45 83.27 491.56
  Q 83.29 491.68 83.41 491.69
  Z"
/>
</svg>
