<?xml version="1.0" encoding="UTF-8" standalone="no"?>
<!DOCTYPE svg PUBLIC "-//W3C//DTD SVG 1.1//EN" "http://www.w3.org/Graphics/SVG/1.1/DTD/svg11.dtd">
<svg xmlns="http://www.w3.org/2000/svg" version="1.1" viewBox="0 0 834 834">
<path fill="#912f72" d="
  M 651.80 352.93
  A 235.14 235.14 0.0 0 1 416.66 588.07
  A 235.14 235.14 0.0 0 1 181.52 352.93
  A 235.14 235.14 0.0 0 1 416.66 117.79
  A 235.14 235.14 0.0 0 1 651.80 352.93
  Z
  M 212.96 438.23
  C 226.14 469.41 247.75 500.09 274.72 521.83
  A 1.14 1.06 -29.1 0 0 275.61 522.05
  Q 285.59 520.34 295.74 521.96
  A 0.72 0.71 18.7 0 0 296.48 521.60
  C 308.41 499.65 323.70 489.16 349.51 489.27
  A 1.19 1.09 19.6 0 0 350.36 488.91
  C 353.02 486.00 355.36 481.69 357.00 479.47
  Q 371.22 460.21 394.49 453.26
  Q 396.94 452.52 397.17 449.95
  L 401.55 399.11
  A 0.74 0.73 -81.1 0 0 400.98 398.32
  C 376.35 392.84 352.76 382.30 333.07 366.44
  C 326.06 360.79 333.09 352.22 339.93 357.55
  Q 360.65 373.72 385.21 382.14
  Q 387.28 382.85 387.67 380.70
  Q 389.22 372.27 391.33 363.96
  C 393.41 355.77 390.26 353.59 382.32 353.53
  Q 358.05 353.35 350.07 352.70
  C 341.63 352.00 342.28 341.12 351.39 341.27
  Q 362.78 341.46 374.02 341.53
  Q 374.71 341.54 374.24 341.03
  L 361.35 327.47
  Q 359.29 325.29 356.27 325.26
  Q 339.27 325.09 322.31 324.55
  Q 319.57 324.47 318.32 323.79
  C 314.91 321.95 315.05 316.59 317.85 314.41
  C 321.13 311.87 340.55 313.25 345.37 313.21
  Q 346.73 313.20 345.75 312.26
  Q 326.42 293.58 309.33 276.69
  C 304.97 272.37 309.63 265.40 315.22 267.18
  Q 317.09 267.77 319.85 270.47
  Q 334.80 285.11 349.84 299.69
  Q 350.63 300.46 350.47 299.36
  Q 349.22 290.84 347.51 282.24
  C 345.98 274.60 357.38 271.22 359.47 281.64
  Q 362.47 296.60 365.39 311.59
  C 366.66 318.14 373.59 323.01 377.97 327.16
  Q 378.90 328.04 378.74 326.77
  Q 377.81 319.56 376.56 312.45
  Q 375.92 308.78 376.50 306.95
  C 378.42 300.83 386.42 302.60 387.56 308.24
  Q 390.88 324.65 394.28 341.08
  C 394.52 342.26 395.93 346.82 397.30 342.59
  C 399.97 334.37 403.28 326.14 406.39 317.92
  Q 407.15 315.91 406.16 314.00
  Q 404.14 310.14 401.06 306.19
  C 377.86 276.46 342.13 258.46 304.50 256.77
  C 297.20 256.44 296.30 260.72 296.50 267.00
  Q 297.25 289.77 305.86 310.96
  C 307.30 314.49 311.40 322.19 311.51 325.61
  C 311.64 329.34 307.01 331.46 303.97 330.27
  Q 301.98 329.49 300.50 326.71
  C 290.72 308.35 285.83 286.87 285.00 266.24
  Q 284.38 250.79 297.53 246.29
  C 302.08 244.73 307.13 245.02 311.98 245.63
  C 360.55 251.70 401.96 277.61 424.03 322.01
  Q 424.74 323.43 425.47 322.02
  C 449.94 275.04 492.48 252.08 543.78 245.42
  Q 551.30 244.44 557.30 248.44
  C 565.31 253.78 565.87 260.56 564.32 270.06
  Q 561.30 288.63 556.28 304.80
  C 539.64 358.28 492.95 394.41 437.76 400.89
  Q 435.68 401.13 435.45 403.22
  C 433.75 419.11 431.20 435.82 431.27 451.76
  A 0.68 0.68 8.7 0 0 431.75 452.41
  C 451.59 458.61 463.54 467.31 475.26 484.72
  C 477.44 487.97 479.22 489.79 483.09 489.67
  C 497.58 489.19 513.21 496.48 522.68 506.89
  C 526.42 511.00 529.52 516.40 532.40 521.50
  A 0.97 0.97 -20.7 0 0 533.45 521.97
  Q 545.15 519.48 556.23 522.88
  A 1.87 1.85 33.2 0 0 558.00 522.52
  C 617.59 472.14 647.45 395.08 634.74 317.76
  C 621.90 239.63 568.20 173.87 493.96 146.07
  C 412.51 115.56 320.78 135.87 259.64 197.80
  C 197.29 260.96 178.20 356.03 212.96 438.23
  Z
  M 553.90 263.99
  C 554.49 257.89 549.41 255.89 544.17 256.58
  C 504.68 261.72 469.38 277.45 445.53 310.76
  C 419.35 347.31 414.31 387.98 409.25 431.79
  C 408.58 437.63 408.54 443.71 408.32 449.71
  A 0.48 0.48 -88.9 0 0 408.80 450.21
  L 419.46 450.21
  A 0.57 0.55 -87.1 0 0 420.01 449.70
  Q 422.61 423.23 425.14 396.73
  Q 425.68 391.01 431.50 390.50
  C 501.60 384.29 547.23 332.62 553.90 263.99
  Z"
/>
<path fill="#912f72" d="
  M 469.19 329.10
  Q 476.47 322.50 482.89 315.09
  Q 483.20 314.73 483.30 314.23
  L 490.24 279.24
  Q 490.55 277.71 491.86 276.76
  Q 496.35 273.52 499.61 276.94
  C 501.75 279.20 500.97 281.42 500.51 284.25
  Q 499.16 292.65 497.64 299.52
  Q 497.08 302.04 498.93 300.23
  Q 515.61 283.86 531.62 268.37
  Q 534.40 265.68 538.14 268.10
  C 542.65 271.02 541.35 274.28 538.12 277.53
  Q 521.54 294.25 504.53 310.53
  Q 503.60 311.41 502.49 312.05
  A 0.97 0.66 -20.9 0 0 501.98 312.78
  Q 501.99 312.99 502.08 313.18
  A 0.75 0.55 -9.7 0 0 502.70 313.49
  C 507.91 313.50 527.53 312.15 531.05 314.61
  C 533.94 316.65 533.34 322.28 529.89 323.82
  Q 528.79 324.31 526.16 324.44
  Q 510.83 325.16 495.50 324.81
  Q 489.04 324.67 484.10 330.10
  Q 479.75 334.87 473.38 340.90
  Q 472.79 341.46 473.60 341.47
  Q 485.92 341.53 498.74 341.50
  C 506.04 341.48 506.69 352.26 498.45 352.63
  Q 482.37 353.35 466.25 353.19
  C 462.59 353.15 460.03 354.10 457.25 356.76
  Q 446.54 367.03 435.97 377.44
  C 429.50 383.80 422.31 375.29 426.51 371.02
  Q 440.35 356.94 449.33 348.59
  C 452.80 345.37 454.39 343.18 455.38 338.28
  Q 458.41 323.26 461.50 308.26
  C 463.09 300.53 474.05 302.95 472.66 309.94
  Q 470.77 319.43 468.91 328.94
  Q 468.81 329.44 469.19 329.10
  Z"
/>
<path fill="#912f72" d="
  M 326.62 348.49
  C 321.63 362.06 301.83 339.79 315.02 336.03
  Q 316.61 335.58 317.95 336.54
  Q 323.93 340.79 326.60 347.55
  A 1.36 1.26 46.0 0 1 326.62 348.49
  Z"
/>
<circle fill="#912f72" cx="416.63" cy="694.62" r="20.95"/>
</svg>
