<?xml version="1.0" encoding="UTF-8" standalone="no"?>
<!DOCTYPE svg PUBLIC "-//W3C//DTD SVG 1.1//EN" "http://www.w3.org/Graphics/SVG/1.1/DTD/svg11.dtd">
<svg xmlns="http://www.w3.org/2000/svg" version="1.1" viewBox="0 0 834 834">
<path fill="#059669" d="
  M 439.10 266.36
  C 408.18 260.68 385.68 234.37 384.35 202.81
  Q 384.13 197.51 384.23 181.42
  C 384.29 171.88 384.59 165.25 395.65 165.25
  Q 426.45 165.25 457.26 165.25
  C 489.69 165.25 517.39 189.93 522.50 221.67
  C 524.22 232.35 523.58 247.12 523.44 259.44
  Q 523.43 260.06 523.92 259.68
  C 535.18 250.93 545.64 248.55 560.55 248.52
  Q 584.92 248.46 609.28 248.52
  C 616.55 248.54 620.72 251.41 620.74 258.82
  C 620.75 270.44 621.91 284.40 619.43 295.00
  C 614.93 314.17 599.73 329.82 580.07 333.90
  Q 574.92 334.97 565.22 334.98
  Q 544.61 335.03 523.98 334.99
  A 0.47 0.47 0.0 0 0 523.51 335.46
  L 523.50 364.52
  A 0.82 0.82 -83.3 0 0 524.13 365.32
  Q 563.64 375.16 588.92 406.82
  C 592.43 411.20 601.02 422.28 600.38 427.94
  C 599.59 434.86 591.91 438.88 586.03 435.10
  Q 583.97 433.78 581.05 428.98
  C 551.01 379.71 488.02 366.56 440.51 399.11
  C 431.75 405.10 420.85 396.38 425.92 387.60
  Q 427.64 384.64 433.15 381.08
  Q 464.91 360.54 503.42 362.30
  A 0.78 0.78 1.4 0 0 504.24 361.52
  L 504.22 268.04
  A 0.50 0.50 0.0 0 0 503.72 267.54
  Q 481.34 267.49 459.02 267.49
  Q 445.30 267.49 439.10 266.36
  Z
  M 502.95 220.70
  C 498.70 203.51 484.86 189.82 467.63 185.65
  Q 461.89 184.26 447.74 184.24
  Q 425.85 184.22 403.89 184.30
  A 0.52 0.51 -89.4 0 0 403.38 184.81
  Q 402.99 199.74 403.24 202.49
  C 405.55 227.71 424.67 248.50 450.50 248.51
  Q 477.09 248.51 503.70 248.48
  A 0.50 0.49 0.0 0 0 504.20 247.99
  C 504.33 239.00 504.92 228.69 502.95 220.70
  Z
  M 546.71 268.96
  C 534.02 272.82 524.04 284.63 523.51 298.01
  Q 523.40 300.90 523.54 315.48
  A 0.51 0.50 89.4 0 0 524.04 315.98
  Q 544.31 316.01 564.57 316.00
  Q 573.61 316.00 578.27 314.61
  Q 592.80 310.30 599.28 295.35
  C 602.92 286.97 601.82 279.65 601.71 267.92
  A 0.50 0.50 0.0 0 0 601.21 267.42
  Q 582.56 267.55 563.95 267.50
  Q 551.59 267.48 546.71 268.96
  Z"
/>
<path fill="#059669" d="
  M 274.82 435.70
  A 0.73 0.72 -29.9 0 0 275.69 435.93
  Q 293.08 428.23 310.58 420.54
  Q 325.82 413.83 328.97 412.66
  Q 369.23 397.62 410.78 412.95
  Q 454.77 429.17 498.76 445.43
  C 518.55 452.75 529.73 472.41 521.62 492.96
  C 516.36 506.30 502.31 515.54 487.90 515.08
  Q 482.56 514.91 471.27 511.15
  Q 438.77 500.31 406.37 489.17
  C 393.56 484.77 399.79 466.73 413.50 471.50
  Q 427.47 476.37 481.16 494.40
  Q 486.54 496.20 489.62 496.00
  C 507.62 494.83 510.95 470.34 494.01 463.95
  Q 476.76 457.44 407.40 432.18
  Q 394.89 427.62 388.32 426.27
  Q 361.38 420.75 334.99 430.74
  Q 325.55 434.32 283.85 453.28
  A 0.49 0.49 -23.9 0 0 283.60 453.93
  L 317.32 530.43
  A 0.49 0.48 -23.0 0 0 317.95 530.68
  C 345.46 518.91 371.96 520.60 398.41 533.52
  Q 418.02 543.10 437.59 552.75
  Q 449.33 558.54 456.05 560.34
  Q 480.36 566.87 503.44 556.71
  Q 562.53 530.70 621.60 504.64
  C 625.96 502.72 631.14 500.59 634.39 497.54
  C 647.52 485.19 635.62 463.42 618.35 467.34
  Q 616.52 467.75 609.32 471.08
  Q 582.64 483.40 555.95 495.68
  C 541.34 502.40 533.89 484.89 547.31 478.69
  Q 577.04 464.94 606.78 451.25
  Q 620.96 444.73 636.28 450.71
  C 662.62 460.99 666.86 497.07 644.59 514.12
  Q 641.20 516.72 633.53 520.11
  Q 575.46 545.80 517.35 571.41
  Q 505.29 576.73 498.67 578.51
  Q 472.80 585.47 447.23 577.57
  Q 440.59 575.51 428.86 569.74
  Q 410.32 560.62 391.78 551.48
  Q 380.70 546.02 374.12 544.29
  Q 349.68 537.84 325.61 548.14
  A 0.63 0.63 -17.0 0 0 325.24 548.83
  C 327.79 563.57 321.22 571.81 309.09 577.92
  Q 252.33 606.52 195.65 635.23
  Q 190.36 637.91 187.35 637.83
  C 181.71 637.69 178.50 633.36 178.50 627.82
  Q 178.50 545.44 178.50 463.05
  C 178.50 459.42 180.35 456.06 183.65 454.61
  Q 212.35 442.00 241.07 429.43
  Q 249.01 425.96 253.44 425.56
  Q 266.34 424.40 274.82 435.70
  Z
  M 257.98 445.29
  C 256.40 444.28 254.92 444.20 253.10 444.99
  Q 225.55 456.98 197.99 469.11
  A 0.77 0.76 -11.8 0 0 197.53 469.81
  L 197.50 550.36
  A 0.32 0.31 -13.7 0 0 197.96 550.63
  Q 207.11 546.16 216.23 541.66
  C 228.02 535.85 237.15 552.73 223.76 559.21
  Q 210.81 565.48 197.98 572.07
  A 0.83 0.82 -13.7 0 0 197.53 572.80
  L 197.55 612.46
  A 0.30 0.30 -13.3 0 0 197.99 612.73
  Q 250.58 586.04 303.36 559.73
  Q 308.30 557.27 306.22 552.55
  Q 283.11 500.15 259.79 447.41
  A 4.89 4.88 -85.5 0 0 257.98 445.29
  Z"
/>
<circle fill="#059669" cx="254.69" cy="535.68" r="9.49"/>
</svg>
